<svg width="228" height="79" viewBox="0 0 228 79" fill="none" xmlns="http://www.w3.org/2000/svg">
<path d="M88.5347 17.5884C87.799 15.963 86.5975 14.9122 84.9302 14.4361C83.259 13.9481 81.3865 14.0461 79.3128 14.7301C77.8281 15.2198 76.6209 15.8812 75.691 16.7141C74.7573 17.5352 74.1229 18.4548 73.7879 19.4731C73.4608 20.4755 73.4649 21.4937 73.8001 22.5277C74.0814 23.3953 74.5244 24.0779 75.1293 24.5756C75.7459 25.0695 76.4535 25.4215 77.252 25.6317C78.0585 25.8261 78.8909 25.9396 79.7493 25.9722C80.6038 25.9929 81.4134 25.9758 82.1782 25.9209L86.0135 25.6819C87.2607 25.5862 88.5701 25.5819 89.9417 25.6688C91.3133 25.7558 92.6466 26.0263 93.9416 26.4806C95.2367 26.9348 96.3931 27.6453 97.4108 28.612C98.4403 29.5748 99.221 30.8762 99.7527 32.5162C100.423 34.5841 100.488 36.5952 99.9481 38.5494C99.4196 40.4997 98.3041 42.2687 96.6016 43.8564C94.9109 45.4402 92.6517 46.6985 89.8238 47.6313C87.1138 48.5252 84.6284 48.8649 82.3677 48.6503C80.1069 48.4356 78.1587 47.7167 76.523 46.4934C74.8834 45.2582 73.6483 43.5608 72.8176 41.401L78.2965 39.5937C78.8303 40.8779 79.6109 41.8373 80.6384 42.4719C81.6737 43.0907 82.844 43.4217 84.1492 43.4648C85.4623 43.4921 86.82 43.2745 88.2221 42.8119C89.7656 42.3028 91.0593 41.6064 92.1032 40.7227C93.1549 39.8232 93.8858 38.8191 94.2959 37.7103C94.702 36.5897 94.7125 35.4352 94.3271 34.2467C93.9765 33.1652 93.3831 32.3809 92.5469 31.8937C91.7225 31.4026 90.7186 31.1023 89.5353 30.9927C88.3638 30.8792 87.0741 30.8639 85.6663 30.9468L81.0077 31.1811C77.851 31.3409 75.1739 30.9282 72.9762 29.9429C70.7904 28.9537 69.2852 27.1875 68.4606 24.6442C67.7785 22.5406 67.7487 20.5179 68.3712 18.5761C68.9937 16.6342 70.1305 14.9108 71.7816 13.4058C73.4288 11.889 75.466 10.7302 77.8932 9.92958C80.344 9.12117 82.6468 8.84176 84.8015 9.09136C86.968 9.33707 88.8399 10.0417 90.4171 11.2054C91.9905 12.3571 93.1186 13.9057 93.8016 15.8511L88.5347 17.5884Z" fill="white"/>
<path d="M105.566 26.0603C104.228 26.0603 103.059 25.7508 102.061 25.1318C101.063 24.5129 100.288 23.647 99.7368 22.5342C99.1852 21.4213 98.9093 20.1209 98.9093 18.633C98.9093 17.1388 99.1852 15.8321 99.7368 14.713C100.288 13.5939 101.063 12.7249 102.061 12.106C103.059 11.487 104.228 11.1776 105.566 11.1776C106.905 11.1776 108.074 11.487 109.072 12.106C110.069 12.7249 110.844 13.5939 111.396 14.713C111.948 15.8321 112.223 17.1388 112.223 18.633C112.223 20.1209 111.948 21.4213 111.396 22.5342C110.844 23.647 110.069 24.5129 109.072 25.1318C108.074 25.7508 106.905 26.0603 105.566 26.0603ZM105.576 23.7064C106.443 23.7064 107.162 23.4751 107.733 23.0124C108.303 22.5498 108.724 21.934 108.997 21.165C109.276 20.396 109.416 19.5489 109.416 18.6236C109.416 17.7046 109.276 16.8606 108.997 16.0916C108.724 15.3163 108.303 14.6943 107.733 14.2254C107.162 13.7565 106.443 13.522 105.576 13.522C104.702 13.522 103.976 13.7565 103.4 14.2254C102.83 14.6943 102.405 15.3163 102.126 16.0916C101.854 16.8606 101.717 17.7046 101.717 18.6236C101.717 19.5489 101.854 20.396 102.126 21.165C102.405 21.934 102.83 22.5498 103.4 23.0124C103.976 23.4751 104.702 23.7064 105.576 23.7064Z" fill="white"/>
<path d="M124.373 19.7958V11.3651H127.162V25.7695H124.429V23.275H124.28C123.951 24.044 123.425 24.6848 122.699 25.1975C121.98 25.7039 121.085 25.9571 120.012 25.9571C119.095 25.9571 118.283 25.7539 117.576 25.3475C116.876 24.9349 116.324 24.3254 115.921 23.5189C115.525 22.7124 115.326 21.7152 115.326 20.5273V11.3651H118.106V20.1897C118.106 21.1713 118.376 21.9527 118.915 22.5342C119.455 23.1156 120.155 23.4063 121.017 23.4063C121.537 23.4063 122.055 23.275 122.569 23.0124C123.09 22.7499 123.521 22.3529 123.862 21.8215C124.209 21.29 124.379 20.6148 124.373 19.7958Z" fill="white"/>
<path d="M133.677 17.2169V25.7695H130.897V11.3651H133.566V13.7096H133.743C134.071 12.9469 134.586 12.3342 135.286 11.8715C135.993 11.4089 136.882 11.1776 137.954 11.1776C138.927 11.1776 139.78 11.3839 140.511 11.7965C141.243 12.2029 141.81 12.8093 142.213 13.6158C142.615 14.4223 142.817 15.4195 142.817 16.6074V25.7695H140.037V16.945C140.037 15.9009 139.767 15.085 139.228 14.4973C138.689 13.9034 137.948 13.6064 137.006 13.6064C136.361 13.6064 135.788 13.7471 135.286 14.0284C134.79 14.3098 134.396 14.7224 134.105 15.2663C133.82 15.804 133.677 16.4542 133.677 17.2169Z" fill="white"/>
<path d="M151.891 26.0509C150.738 26.0509 149.71 25.7539 148.805 25.16C147.906 24.5598 147.199 23.7064 146.685 22.5998C146.176 21.487 145.922 20.1522 145.922 18.5955C145.922 17.0387 146.18 15.7071 146.694 14.6005C147.215 13.4939 147.927 12.6468 148.832 12.0591C149.737 11.4714 150.763 11.1776 151.91 11.1776C152.796 11.1776 153.509 11.3276 154.048 11.6277C154.594 11.9215 155.015 12.2654 155.313 12.6593C155.617 13.0531 155.852 13.4001 156.019 13.7002H156.187V6.56366H158.967V25.7695H156.252V23.5282H156.019C155.852 23.8346 155.61 24.1847 155.294 24.5786C154.984 24.9724 154.557 25.3163 154.011 25.6101C153.466 25.904 152.759 26.0509 151.891 26.0509ZM152.505 23.6595C153.305 23.6595 153.98 23.447 154.532 23.0218C155.09 22.5904 155.511 21.9934 155.796 21.2307C156.088 20.4679 156.233 19.5801 156.233 18.5673C156.233 17.567 156.091 16.6918 155.806 15.9415C155.52 15.1913 155.102 14.6067 154.55 14.1879C153.999 13.769 153.317 13.5596 152.505 13.5596C151.668 13.5596 150.971 13.7784 150.413 14.216C149.855 14.6536 149.434 15.2507 149.149 16.0072C148.87 16.7637 148.73 17.617 148.73 18.5673C148.73 19.5301 148.873 20.396 149.158 21.165C149.443 21.934 149.864 22.5436 150.422 22.9937C150.986 23.4376 151.681 23.6595 152.505 23.6595Z" fill="white"/>
<path d="M115.797 39.6019V31.1712H118.587V45.5756H115.853V43.0811H115.704C115.376 43.8501 114.849 44.4909 114.124 45.0036C113.405 45.51 112.509 45.7632 111.437 45.7632C110.519 45.7632 109.707 45.56 109.001 45.1536C108.3 44.741 107.749 44.1314 107.346 43.3249C106.949 42.5184 106.751 41.5212 106.751 40.3334V31.1712H109.531V39.9958C109.531 40.9773 109.8 41.7588 110.34 42.3402C110.879 42.9217 111.579 43.2124 112.441 43.2124C112.962 43.2124 113.479 43.0811 113.994 42.8185C114.514 42.5559 114.945 42.1589 115.286 41.6275C115.633 41.0961 115.804 40.4209 115.797 39.6019Z" fill="white"/>
<path d="M128.31 51.2774C127.175 51.2774 126.199 51.1273 125.381 50.8272C124.569 50.5271 123.906 50.1301 123.391 49.6362C122.877 49.1423 122.492 48.6015 122.238 48.0139L124.628 47.0198C124.795 47.2949 125.018 47.5856 125.297 47.8919C125.582 48.2045 125.967 48.4702 126.45 48.6891C126.94 48.9079 127.569 49.0173 128.337 49.0173C129.391 49.0173 130.262 48.7578 130.95 48.2389C131.638 47.7263 131.982 46.9073 131.982 45.7819V42.9498H131.805C131.638 43.2561 131.396 43.5969 131.08 43.972C130.77 44.3471 130.343 44.6722 129.797 44.9473C129.252 45.2224 128.542 45.3599 127.668 45.3599C126.54 45.3599 125.523 45.0942 124.618 44.5628C123.72 44.0251 123.007 43.2343 122.48 42.1902C121.959 41.1399 121.699 39.8489 121.699 38.3171C121.699 36.7854 121.956 35.4725 122.471 34.3784C122.991 33.2843 123.704 32.4466 124.609 31.8652C125.514 31.2775 126.54 30.9836 127.687 30.9836C128.573 30.9836 129.289 31.1337 129.834 31.4338C130.38 31.7276 130.804 32.0715 131.108 32.4653C131.418 32.8592 131.657 33.2062 131.824 33.5063H132.029V31.1712H134.753V45.8945C134.753 47.1323 134.468 48.1483 133.897 48.9423C133.327 49.7363 132.555 50.3239 131.582 50.7053C130.615 51.0867 129.524 51.2774 128.31 51.2774ZM128.282 43.0342C129.081 43.0342 129.757 42.8467 130.309 42.4715C130.866 42.0902 131.288 41.5463 131.573 40.8398C131.864 40.1271 132.01 39.2737 132.01 38.2796C132.01 37.3106 131.867 36.4572 131.582 35.7195C131.297 34.9817 130.879 34.4066 130.327 33.9939C129.775 33.5751 129.094 33.3656 128.282 33.3656C127.445 33.3656 126.748 33.5844 126.19 34.0221C125.632 34.4535 125.21 35.0411 124.925 35.7851C124.646 36.5291 124.507 37.3606 124.507 38.2796C124.507 39.2237 124.649 40.052 124.935 40.7648C125.22 41.4775 125.641 42.0339 126.199 42.434C126.763 42.8341 127.457 43.0342 128.282 43.0342Z" fill="white"/>
<path d="M144.469 51.2774C143.334 51.2774 142.358 51.1273 141.54 50.8272C140.728 50.5271 140.065 50.1301 139.55 49.6362C139.036 49.1423 138.651 48.6015 138.397 48.0139L140.787 47.0198C140.954 47.2949 141.177 47.5856 141.456 47.8919C141.741 48.2045 142.126 48.4702 142.609 48.6891C143.099 48.9079 143.728 49.0173 144.497 49.0173C145.55 49.0173 146.421 48.7578 147.109 48.2389C147.797 47.7263 148.141 46.9073 148.141 45.7819V42.9498H147.965C147.797 43.2561 147.555 43.5969 147.239 43.972C146.929 44.3471 146.502 44.6722 145.956 44.9473C145.411 45.2224 144.701 45.3599 143.827 45.3599C142.699 45.3599 141.682 45.0942 140.778 44.5628C139.879 44.0251 139.166 43.2343 138.639 42.1902C138.118 41.1399 137.858 39.8489 137.858 38.3171C137.858 36.7854 138.115 35.4725 138.63 34.3784C139.15 33.2843 139.863 32.4466 140.768 31.8652C141.673 31.2775 142.699 30.9836 143.846 30.9836C144.732 30.9836 145.448 31.1337 145.993 31.4338C146.539 31.7276 146.963 32.0715 147.267 32.4653C147.577 32.8592 147.816 33.2062 147.983 33.5063H148.188V31.1712H150.912V45.8945C150.912 47.1323 150.627 48.1483 150.056 48.9423C149.486 49.7363 148.715 50.3239 147.741 50.7053C146.774 51.0867 145.684 51.2774 144.469 51.2774ZM144.441 43.0342C145.24 43.0342 145.916 42.8467 146.468 42.4715C147.025 42.0902 147.447 41.5463 147.732 40.8398C148.023 40.1271 148.169 39.2737 148.169 38.2796C148.169 37.3106 148.026 36.4572 147.741 35.7195C147.456 34.9817 147.038 34.4066 146.486 33.9939C145.935 33.5751 145.253 33.3656 144.441 33.3656C143.604 33.3656 142.907 33.5844 142.349 34.0221C141.791 34.4535 141.369 35.0411 141.084 35.7851C140.805 36.5291 140.666 37.3606 140.666 38.2796C140.666 39.2237 140.809 40.052 141.094 40.7648C141.379 41.4775 141.8 42.0339 142.358 42.434C142.922 42.8341 143.616 43.0342 144.441 43.0342Z" fill="white"/>
<path d="M160.795 45.8663C159.388 45.8663 158.176 45.5631 157.16 44.9567C156.149 44.344 155.368 43.4843 154.817 42.3778C154.271 41.2649 153.999 39.9614 153.999 38.4672C153.999 36.9917 154.271 35.6913 154.817 34.566C155.368 33.4406 156.137 32.5623 157.123 31.9308C158.114 31.2994 159.273 30.9836 160.6 30.9836C161.406 30.9836 162.187 31.1181 162.943 31.3869C163.699 31.6557 164.378 32.0777 164.979 32.6529C165.58 33.2281 166.054 33.9752 166.402 34.8942C166.749 35.807 166.922 36.9167 166.922 38.2234V39.2174H155.57V37.1168H164.198C164.198 36.379 164.049 35.7257 163.752 35.1568C163.454 34.5816 163.036 34.1284 162.497 33.797C161.964 33.4657 161.337 33.3 160.618 33.3C159.837 33.3 159.156 33.4938 158.573 33.8814C157.997 34.2628 157.55 34.7629 157.234 35.3819C156.924 35.9946 156.769 36.6604 156.769 37.3794V39.0205C156.769 39.9833 156.937 40.8023 157.271 41.4775C157.612 42.1527 158.086 42.6685 158.694 43.0248C159.301 43.3749 160.011 43.55 160.823 43.55C161.35 43.55 161.83 43.475 162.264 43.3249C162.698 43.1686 163.073 42.9373 163.389 42.631C163.705 42.3246 163.947 41.9464 164.114 41.4962L166.746 41.9745C166.535 42.756 166.157 43.4406 165.611 44.0283C165.072 44.6097 164.393 45.063 163.575 45.3881C162.763 45.7069 161.836 45.8663 160.795 45.8663Z" fill="white"/>
<path d="M180.708 34.6879L178.188 35.138C178.083 34.8129 177.916 34.5035 177.686 34.2096C177.463 33.9158 177.16 33.6751 176.775 33.4875C176.391 33.3 175.911 33.2062 175.334 33.2062C174.547 33.2062 173.89 33.3844 173.363 33.7407C172.836 34.0908 172.573 34.5441 172.573 35.1005C172.573 35.5819 172.749 35.9695 173.103 36.2634C173.456 36.5572 174.026 36.7979 174.813 36.9855L177.082 37.5106C178.396 37.817 179.375 38.289 180.02 38.9267C180.665 39.5644 180.987 40.3928 180.987 41.4118C180.987 42.2746 180.739 43.0436 180.243 43.7188C179.754 44.3877 179.069 44.9129 178.188 45.2943C177.314 45.6756 176.301 45.8663 175.148 45.8663C173.549 45.8663 172.244 45.5225 171.234 44.8348C170.224 44.1408 169.604 43.1561 169.374 41.8807L172.061 41.4681C172.229 42.1746 172.573 42.7091 173.093 43.0717C173.614 43.4281 174.293 43.6063 175.13 43.6063C176.041 43.6063 176.769 43.4156 177.314 43.0342C177.86 42.6466 178.133 42.1746 178.133 41.6181C178.133 41.168 177.965 40.7898 177.631 40.4834C177.302 40.1771 176.797 39.9458 176.115 39.7895L173.698 39.2549C172.365 38.9486 171.38 38.4609 170.741 37.792C170.109 37.123 169.793 36.2759 169.793 35.2506C169.793 34.4003 170.028 33.6563 170.499 33.0186C170.97 32.3809 171.621 31.8839 172.452 31.5276C173.282 31.1649 174.234 30.9836 175.306 30.9836C176.85 30.9836 178.064 31.3212 178.951 31.9965C179.837 32.6654 180.423 33.5626 180.708 34.6879Z" fill="white"/>
<path d="M190.71 31.1712V33.4219H182.909V31.1712H190.71ZM185.001 27.7201H187.781V41.3462C187.781 41.8901 187.862 42.2996 188.023 42.5747C188.184 42.8435 188.392 43.028 188.646 43.128C188.906 43.2218 189.188 43.2687 189.492 43.2687C189.715 43.2687 189.91 43.253 190.078 43.2218C190.245 43.1905 190.375 43.1655 190.468 43.1467L190.97 45.4631C190.809 45.5256 190.58 45.5881 190.282 45.6506C189.985 45.7194 189.613 45.7569 189.167 45.7632C188.435 45.7757 187.753 45.6444 187.121 45.3693C186.489 45.0942 185.977 44.6691 185.587 44.0939C185.196 43.5187 185.001 42.7966 185.001 41.9276V27.7201Z" fill="white"/>
<path d="M193.785 45.5756V31.1712H196.565V45.5756H193.785ZM195.189 28.9486C194.706 28.9486 194.29 28.7861 193.943 28.461C193.602 28.1296 193.432 27.7358 193.432 27.2794C193.432 26.8167 193.602 26.4229 193.943 26.0978C194.29 25.7664 194.706 25.6007 195.189 25.6007C195.672 25.6007 196.085 25.7664 196.426 26.0978C196.773 26.4229 196.946 26.8167 196.946 27.2794C196.946 27.7358 196.773 28.1296 196.426 28.461C196.085 28.7861 195.672 28.9486 195.189 28.9486Z" fill="white"/>
<path d="M206.32 45.8663C204.982 45.8663 203.813 45.5569 202.815 44.9379C201.817 44.319 201.043 43.4531 200.491 42.3402C199.939 41.2274 199.663 39.927 199.663 38.439C199.663 36.9448 199.939 35.6382 200.491 34.5191C201.043 33.4 201.817 32.531 202.815 31.9121C203.813 31.2931 204.982 30.9836 206.32 30.9836C207.659 30.9836 208.828 31.2931 209.826 31.9121C210.824 32.531 211.598 33.4 212.15 34.5191C212.702 35.6382 212.978 36.9448 212.978 38.439C212.978 39.927 212.702 41.2274 212.15 42.3402C211.598 43.4531 210.824 44.319 209.826 44.9379C208.828 45.5569 207.659 45.8663 206.32 45.8663ZM206.33 43.5125C207.198 43.5125 207.917 43.2812 208.487 42.8185C209.057 42.3559 209.479 41.7401 209.751 40.9711C210.03 40.2021 210.17 39.355 210.17 38.4297C210.17 37.5106 210.03 36.6666 209.751 35.8976C209.479 35.1224 209.057 34.5003 208.487 34.0314C207.917 33.5626 207.198 33.3281 206.33 33.3281C205.456 33.3281 204.731 33.5626 204.154 34.0314C203.584 34.5003 203.159 35.1224 202.88 35.8976C202.608 36.6666 202.471 37.5106 202.471 38.4297C202.471 39.355 202.608 40.2021 202.88 40.9711C203.159 41.7401 203.584 42.3559 204.154 42.8185C204.731 43.2812 205.456 43.5125 206.33 43.5125Z" fill="white"/>
<path d="M218.861 37.023V45.5756H216.081V31.1712H218.749V33.5157H218.926C219.254 32.7529 219.769 32.1402 220.469 31.6776C221.176 31.215 222.065 30.9836 223.137 30.9836C224.111 30.9836 224.963 31.19 225.694 31.6026C226.426 32.009 226.993 32.6154 227.396 33.4219C227.799 34.2284 228 35.2256 228 36.4134V45.5756H225.22V36.751C225.22 35.707 224.95 34.8911 224.411 34.3034C223.872 33.7095 223.131 33.4125 222.189 33.4125C221.544 33.4125 220.971 33.5532 220.469 33.8345C219.973 34.1159 219.58 34.5285 219.288 35.0724C219.003 35.6101 218.861 36.2603 218.861 37.023Z" fill="white"/>
<path d="M4.65689 0.120125C3.14868 0.300089 1.58344 0.737218 0 1.41091L14.1017 40.9898C12.125 40.359 9.86912 40.4581 7.7109 41.256C2.71057 43.0958 -0.387402 48.161 0.782016 52.5216C1.9549 56.8992 6.95807 58.9627 11.9589 57.1055C16.9474 55.2672 20.0501 50.2187 18.8694 45.8422C14.2215 32.421 9.51707 18.7641 4.87478 5.27102C11.6157 5.02749 15.0983 9.43608 18.0842 14.0369C16.6741 3.40404 11.1913 -0.658984 4.65689 0.120125ZM46.156 0.112802C44.3309 0.364722 42.4259 1.04157 40.5145 2.09053L56.9777 40.3023C54.9743 39.8832 52.7438 40.2046 50.6434 41.2379C45.8112 43.5939 43.0451 48.9809 44.478 53.2383C45.913 57.5127 51.0093 59.0438 55.8394 56.6707C60.6847 54.3129 63.4377 48.9277 62.0048 44.6703C56.5456 31.7004 51.0451 18.5102 45.5883 5.45315C52.2555 4.5095 55.9887 8.57532 59.2439 12.8761C57.2975 2.96796 52.1297 -0.715698 46.156 0.112802ZM28.8625 22.1593L34.4502 64.4858C32.6478 63.2254 30.4084 62.5243 28.1128 62.5417C22.8515 62.5587 18.7372 66.2625 18.9801 70.8289C19.2187 75.3612 23.7171 79.0338 28.9763 78.9998C34.2793 78.9948 38.3519 75.279 38.1243 70.728C36.3432 56.4178 34.5866 41.8789 32.8363 27.4954C39.4997 29.5884 42.0081 34.9568 43.9732 40.3602C44.991 27.3732 37.8835 21.6591 28.8625 22.1593Z" fill="white"/>
</svg>
